<mxfile host="app.diagrams.net" modified="2023-06-08T08:57:06.901Z" agent="Mozilla/5.0 (Macintosh; Intel Mac OS X 10_15_7) AppleWebKit/537.36 (KHTML, like Gecko) Chrome/113.0.0.0 Safari/537.36" etag="TG8Ssj56XYxrnvUBeQn6" version="21.3.7" type="github">
  <diagram name="第 1 页" id="dXNmyuTJvid2RzbOHEpj">
    <mxGraphModel dx="970" dy="621" grid="0" gridSize="10" guides="1" tooltips="1" connect="1" arrows="1" fold="1" page="0" pageScale="1" pageWidth="827" pageHeight="1169" math="0" shadow="0">
      <root>
        <mxCell id="0" />
        <mxCell id="1" parent="0" />
        <mxCell id="QNIii7e7S0lebRz_veVL-1" value="运&lt;br&gt;&lt;br&gt;维&lt;br&gt;&lt;br&gt;体&lt;br&gt;&lt;br&gt;系" style="rounded=0;whiteSpace=wrap;html=1;fillColor=#dae8fc;strokeColor=#6c8ebf;fontStyle=1" vertex="1" parent="1">
          <mxGeometry x="80" y="70" width="40" height="470" as="geometry" />
        </mxCell>
        <mxCell id="QNIii7e7S0lebRz_veVL-2" value="安&lt;br&gt;&lt;br&gt;全&lt;br&gt;&lt;br&gt;体&lt;br&gt;&lt;br&gt;系" style="rounded=0;whiteSpace=wrap;html=1;fillColor=#dae8fc;strokeColor=#6c8ebf;fontStyle=1" vertex="1" parent="1">
          <mxGeometry x="640" y="70" width="40" height="470" as="geometry" />
        </mxCell>
        <mxCell id="QNIii7e7S0lebRz_veVL-3" value="应&lt;br&gt;用&lt;br&gt;层" style="rounded=1;whiteSpace=wrap;html=1;fillColor=#008a00;fontColor=#ffffff;strokeColor=#005700;fontStyle=1" vertex="1" parent="1">
          <mxGeometry x="160" y="70" width="40" height="70" as="geometry" />
        </mxCell>
        <mxCell id="QNIii7e7S0lebRz_veVL-4" value="物&lt;br&gt;理&lt;br&gt;层" style="rounded=1;whiteSpace=wrap;html=1;fillColor=#1ba1e2;fontColor=#ffffff;strokeColor=#006EAF;fontStyle=1" vertex="1" parent="1">
          <mxGeometry x="160" y="420" width="40" height="120" as="geometry" />
        </mxCell>
        <mxCell id="QNIii7e7S0lebRz_veVL-5" value="I&lt;br&gt;A&lt;br&gt;A&lt;br&gt;S" style="rounded=1;whiteSpace=wrap;html=1;fillColor=#fa6800;fontColor=#FFFFFF;strokeColor=#C73500;fontStyle=1" vertex="1" parent="1">
          <mxGeometry x="160" y="160" width="40" height="100" as="geometry" />
        </mxCell>
        <mxCell id="QNIii7e7S0lebRz_veVL-6" value="P&lt;br&gt;A&lt;br&gt;A&lt;br&gt;S" style="rounded=1;whiteSpace=wrap;html=1;fillColor=#fad7ac;strokeColor=#b46504;fontColor=#1A1A1A;fontStyle=1" vertex="1" parent="1">
          <mxGeometry x="160" y="280" width="40" height="120" as="geometry" />
        </mxCell>
        <mxCell id="QNIii7e7S0lebRz_veVL-14" value="" style="rounded=0;whiteSpace=wrap;html=1;fillColor=none;strokeColor=#1BA1E2;fontColor=#FF0000;container=0;fontStyle=1" vertex="1" parent="1">
          <mxGeometry x="210" y="420" width="420" height="120" as="geometry" />
        </mxCell>
        <mxCell id="QNIii7e7S0lebRz_veVL-10" value="&lt;br&gt;&lt;br&gt;&lt;br&gt;&lt;br&gt;&lt;span&gt;&lt;font style=&quot;font-size: 14px;&quot;&gt;网络&lt;/font&gt;&lt;/span&gt;" style="ellipse;whiteSpace=wrap;html=1;dashed=1;fillColor=none;container=0;fontStyle=1" vertex="1" parent="1">
          <mxGeometry x="269" y="450" width="270" height="80" as="geometry" />
        </mxCell>
        <mxCell id="QNIii7e7S0lebRz_veVL-7" value="&lt;font style=&quot;font-size: 14px;&quot;&gt;&lt;span&gt;服务器&lt;/span&gt;&lt;/font&gt;" style="image;aspect=fixed;perimeter=ellipsePerimeter;html=1;align=center;shadow=0;dashed=0;spacingTop=3;image=img/lib/active_directory/windows_server.svg;container=0;fontStyle=1" vertex="1" parent="1">
          <mxGeometry x="240" y="450" width="41" height="50" as="geometry" />
        </mxCell>
        <mxCell id="QNIii7e7S0lebRz_veVL-8" value="&lt;span&gt;&lt;font color=&quot;#ff0000&quot; style=&quot;font-size: 14px;&quot;&gt;数据中心&lt;/font&gt;&lt;/span&gt;" style="image;aspect=fixed;perimeter=ellipsePerimeter;html=1;align=center;shadow=0;dashed=0;spacingTop=3;image=img/lib/active_directory/databases.svg;container=0;fontStyle=1" vertex="1" parent="1">
          <mxGeometry x="379" y="420" width="50" height="49" as="geometry" />
        </mxCell>
        <mxCell id="QNIii7e7S0lebRz_veVL-9" value="&lt;span&gt;&lt;font style=&quot;font-size: 14px;&quot;&gt;安全设备&lt;/font&gt;&lt;/span&gt;" style="image;html=1;image=img/lib/clip_art/finance/Safe_128x128.png;container=0;fontStyle=1" vertex="1" parent="1">
          <mxGeometry x="510" y="450" width="60" height="50" as="geometry" />
        </mxCell>
        <mxCell id="QNIii7e7S0lebRz_veVL-15" value="" style="rounded=0;whiteSpace=wrap;html=1;fillColor=none;strokeColor=#FAD7AC;fontColor=#FF0000;container=0;fontStyle=1" vertex="1" parent="1">
          <mxGeometry x="210" y="280" width="420" height="120" as="geometry" />
        </mxCell>
        <mxCell id="QNIii7e7S0lebRz_veVL-16" value="基 础 设 施 服 务" style="rounded=1;whiteSpace=wrap;html=1;fillColor=#fad7ac;strokeColor=#b46504;fontColor=#1A1A1A;fontStyle=1" vertex="1" parent="1">
          <mxGeometry x="261" y="295" width="309" height="30" as="geometry" />
        </mxCell>
        <mxCell id="QNIii7e7S0lebRz_veVL-17" value="云服务器" style="rounded=1;whiteSpace=wrap;html=1;fillColor=#fad7ac;strokeColor=#b46504;fontColor=#1A1A1A;fontStyle=1" vertex="1" parent="1">
          <mxGeometry x="226" y="350" width="90" height="30" as="geometry" />
        </mxCell>
        <mxCell id="QNIii7e7S0lebRz_veVL-18" value="云网络" style="rounded=1;whiteSpace=wrap;html=1;fillColor=#fad7ac;strokeColor=#b46504;fontColor=#1A1A1A;fontStyle=1" vertex="1" parent="1">
          <mxGeometry x="333" y="350" width="90" height="30" as="geometry" />
        </mxCell>
        <mxCell id="QNIii7e7S0lebRz_veVL-19" value="云存储" style="rounded=1;whiteSpace=wrap;html=1;fillColor=#fad7ac;strokeColor=#b46504;fontColor=#1A1A1A;fontStyle=1" vertex="1" parent="1">
          <mxGeometry x="439" y="350" width="90" height="30" as="geometry" />
        </mxCell>
        <mxCell id="QNIii7e7S0lebRz_veVL-20" value="..." style="rounded=1;whiteSpace=wrap;html=1;fillColor=#fad7ac;strokeColor=#b46504;fontStyle=1" vertex="1" parent="1">
          <mxGeometry x="566" y="350" width="50" height="30" as="geometry" />
        </mxCell>
        <mxCell id="QNIii7e7S0lebRz_veVL-21" value="" style="rounded=0;whiteSpace=wrap;html=1;fillColor=none;strokeColor=#FA6800;fontColor=#FF0000;container=0;fontStyle=1" vertex="1" parent="1">
          <mxGeometry x="210" y="160" width="420" height="100" as="geometry" />
        </mxCell>
        <mxCell id="QNIii7e7S0lebRz_veVL-22" value="" style="rounded=0;whiteSpace=wrap;html=1;fillColor=none;strokeColor=#008A00;fontColor=#FF0000;container=0;fontStyle=1" vertex="1" parent="1">
          <mxGeometry x="210" y="70" width="420" height="70" as="geometry" />
        </mxCell>
        <mxCell id="QNIii7e7S0lebRz_veVL-23" value="基 础 软件 服 务" style="rounded=1;whiteSpace=wrap;html=1;fillColor=#FA6800;strokeColor=#C73500;fontColor=#ffffff;fontStyle=1" vertex="1" parent="1">
          <mxGeometry x="269" y="170" width="309" height="30" as="geometry" />
        </mxCell>
        <mxCell id="QNIii7e7S0lebRz_veVL-24" value="云服务" style="rounded=1;whiteSpace=wrap;html=1;fillColor=#FA6800;strokeColor=#C73500;fontColor=#ffffff;fontStyle=1" vertex="1" parent="1">
          <mxGeometry x="220" y="210" width="70" height="30" as="geometry" />
        </mxCell>
        <mxCell id="QNIii7e7S0lebRz_veVL-25" value="云中间件" style="rounded=1;whiteSpace=wrap;html=1;fillColor=#FA6800;strokeColor=#C73500;fontColor=#ffffff;fontStyle=1" vertex="1" parent="1">
          <mxGeometry x="322" y="210" width="70" height="30" as="geometry" />
        </mxCell>
        <mxCell id="QNIii7e7S0lebRz_veVL-26" value="容器化技术" style="rounded=1;whiteSpace=wrap;html=1;fillColor=#FA6800;strokeColor=#C73500;fontColor=#ffffff;fontStyle=1" vertex="1" parent="1">
          <mxGeometry x="418" y="210" width="80" height="30" as="geometry" />
        </mxCell>
        <mxCell id="QNIii7e7S0lebRz_veVL-28" value="..." style="rounded=1;whiteSpace=wrap;html=1;fillColor=#FA6800;strokeColor=#C73500;fontColor=#ffffff;fontStyle=1" vertex="1" parent="1">
          <mxGeometry x="520" y="210" width="80" height="30" as="geometry" />
        </mxCell>
        <mxCell id="QNIii7e7S0lebRz_veVL-30" value="APP 移 动 端" style="rounded=1;whiteSpace=wrap;html=1;fillColor=#008a00;fontColor=#ffffff;strokeColor=#005700;fontStyle=1" vertex="1" parent="1">
          <mxGeometry x="240" y="85" width="150" height="40" as="geometry" />
        </mxCell>
        <mxCell id="QNIii7e7S0lebRz_veVL-31" value="综 合 管 理 平 台" style="rounded=1;whiteSpace=wrap;html=1;fillColor=#008a00;fontColor=#ffffff;strokeColor=#005700;fontStyle=1" vertex="1" parent="1">
          <mxGeometry x="429" y="85" width="158" height="40" as="geometry" />
        </mxCell>
        <mxCell id="QNIii7e7S0lebRz_veVL-35" value="取证环节" style="swimlane;childLayout=stackLayout;resizeParent=1;resizeParentMax=0;startSize=20;horizontal=0;horizontalStack=1;" vertex="1" parent="1">
          <mxGeometry x="81" y="610" width="703" height="550" as="geometry" />
        </mxCell>
        <mxCell id="QNIii7e7S0lebRz_veVL-37" value="服务端" style="swimlane;startSize=20;" vertex="1" parent="QNIii7e7S0lebRz_veVL-35">
          <mxGeometry x="20" width="193" height="550" as="geometry" />
        </mxCell>
        <mxCell id="QNIii7e7S0lebRz_veVL-85" style="edgeStyle=orthogonalEdgeStyle;rounded=0;orthogonalLoop=1;jettySize=auto;html=1;exitX=0.5;exitY=1;exitDx=0;exitDy=0;entryX=0.5;entryY=0;entryDx=0;entryDy=0;" edge="1" parent="QNIii7e7S0lebRz_veVL-37" source="QNIii7e7S0lebRz_veVL-72" target="QNIii7e7S0lebRz_veVL-84">
          <mxGeometry relative="1" as="geometry" />
        </mxCell>
        <mxCell id="QNIii7e7S0lebRz_veVL-72" value="客户端" style="rounded=0;whiteSpace=wrap;html=1;" vertex="1" parent="QNIii7e7S0lebRz_veVL-37">
          <mxGeometry x="60" y="70" width="79" height="40" as="geometry" />
        </mxCell>
        <mxCell id="QNIii7e7S0lebRz_veVL-91" style="edgeStyle=orthogonalEdgeStyle;rounded=0;orthogonalLoop=1;jettySize=auto;html=1;exitX=0.5;exitY=1;exitDx=0;exitDy=0;" edge="1" parent="QNIii7e7S0lebRz_veVL-37" source="QNIii7e7S0lebRz_veVL-84" target="QNIii7e7S0lebRz_veVL-90">
          <mxGeometry relative="1" as="geometry" />
        </mxCell>
        <mxCell id="QNIii7e7S0lebRz_veVL-84" value="取证" style="shape=process;whiteSpace=wrap;html=1;backgroundOutline=1;" vertex="1" parent="QNIii7e7S0lebRz_veVL-37">
          <mxGeometry x="60" y="150" width="80" height="40" as="geometry" />
        </mxCell>
        <mxCell id="QNIii7e7S0lebRz_veVL-90" value="加密" style="shape=process;whiteSpace=wrap;html=1;backgroundOutline=1;" vertex="1" parent="QNIii7e7S0lebRz_veVL-37">
          <mxGeometry x="59.5" y="230" width="80" height="40" as="geometry" />
        </mxCell>
        <mxCell id="QNIii7e7S0lebRz_veVL-136" value="客户端" style="rounded=0;whiteSpace=wrap;html=1;" vertex="1" parent="QNIii7e7S0lebRz_veVL-37">
          <mxGeometry x="60" y="470" width="79" height="40" as="geometry" />
        </mxCell>
        <mxCell id="QNIii7e7S0lebRz_veVL-38" value="服务端" style="swimlane;startSize=20;" vertex="1" parent="QNIii7e7S0lebRz_veVL-35">
          <mxGeometry x="213" width="180" height="550" as="geometry" />
        </mxCell>
        <mxCell id="QNIii7e7S0lebRz_veVL-77" value="申请公钥" style="shape=process;whiteSpace=wrap;html=1;backgroundOutline=1;" vertex="1" parent="QNIii7e7S0lebRz_veVL-38">
          <mxGeometry x="60" y="70" width="91" height="40" as="geometry" />
        </mxCell>
        <mxCell id="QNIii7e7S0lebRz_veVL-103" style="edgeStyle=orthogonalEdgeStyle;rounded=0;orthogonalLoop=1;jettySize=auto;html=1;exitX=0.5;exitY=1;exitDx=0;exitDy=0;entryX=0.5;entryY=0;entryDx=0;entryDy=0;endArrow=none;endFill=0;" edge="1" parent="QNIii7e7S0lebRz_veVL-38" source="QNIii7e7S0lebRz_veVL-99" target="QNIii7e7S0lebRz_veVL-101">
          <mxGeometry relative="1" as="geometry" />
        </mxCell>
        <mxCell id="QNIii7e7S0lebRz_veVL-139" value="原文件" style="edgeLabel;html=1;align=center;verticalAlign=middle;resizable=0;points=[];" vertex="1" connectable="0" parent="QNIii7e7S0lebRz_veVL-103">
          <mxGeometry x="-0.1571" relative="1" as="geometry">
            <mxPoint as="offset" />
          </mxGeometry>
        </mxCell>
        <mxCell id="QNIii7e7S0lebRz_veVL-99" value="解密" style="shape=process;whiteSpace=wrap;html=1;backgroundOutline=1;" vertex="1" parent="QNIii7e7S0lebRz_veVL-38">
          <mxGeometry x="68" y="230" width="80" height="40" as="geometry" />
        </mxCell>
        <mxCell id="QNIii7e7S0lebRz_veVL-104" style="edgeStyle=orthogonalEdgeStyle;rounded=0;orthogonalLoop=1;jettySize=auto;html=1;exitX=0.5;exitY=1;exitDx=0;exitDy=0;endArrow=none;endFill=0;" edge="1" parent="QNIii7e7S0lebRz_veVL-38" source="QNIii7e7S0lebRz_veVL-101" target="QNIii7e7S0lebRz_veVL-102">
          <mxGeometry relative="1" as="geometry" />
        </mxCell>
        <mxCell id="QNIii7e7S0lebRz_veVL-101" value="提取指纹" style="shape=process;whiteSpace=wrap;html=1;backgroundOutline=1;" vertex="1" parent="QNIii7e7S0lebRz_veVL-38">
          <mxGeometry x="68" y="310" width="80" height="40" as="geometry" />
        </mxCell>
        <mxCell id="QNIii7e7S0lebRz_veVL-102" value="提取标签" style="shape=process;whiteSpace=wrap;html=1;backgroundOutline=1;" vertex="1" parent="QNIii7e7S0lebRz_veVL-38">
          <mxGeometry x="68" y="390" width="80" height="40" as="geometry" />
        </mxCell>
        <mxCell id="QNIii7e7S0lebRz_veVL-134" value="存证证书" style="shape=process;whiteSpace=wrap;html=1;backgroundOutline=1;" vertex="1" parent="QNIii7e7S0lebRz_veVL-38">
          <mxGeometry x="68" y="470" width="80" height="40" as="geometry" />
        </mxCell>
        <mxCell id="QNIii7e7S0lebRz_veVL-143" value="标签：地址位置、时间等" style="text;html=1;strokeColor=none;fillColor=none;align=center;verticalAlign=middle;whiteSpace=wrap;rounded=0;fontSize=3;" vertex="1" parent="QNIii7e7S0lebRz_veVL-38">
          <mxGeometry x="13" y="430" width="160" height="30" as="geometry" />
        </mxCell>
        <mxCell id="QNIii7e7S0lebRz_veVL-39" value="云存储" style="swimlane;startSize=20;" vertex="1" parent="QNIii7e7S0lebRz_veVL-35">
          <mxGeometry x="393" width="160" height="550" as="geometry" />
        </mxCell>
        <mxCell id="QNIii7e7S0lebRz_veVL-105" value="加密存储" style="shape=process;whiteSpace=wrap;html=1;backgroundOutline=1;" vertex="1" parent="QNIii7e7S0lebRz_veVL-39">
          <mxGeometry x="59" y="230" width="80" height="40" as="geometry" />
        </mxCell>
        <mxCell id="QNIii7e7S0lebRz_veVL-74" value="区块链" style="swimlane;startSize=20;" vertex="1" parent="QNIii7e7S0lebRz_veVL-35">
          <mxGeometry x="553" width="150" height="550" as="geometry" />
        </mxCell>
        <mxCell id="QNIii7e7S0lebRz_veVL-107" value="指纹上链" style="shape=process;whiteSpace=wrap;html=1;backgroundOutline=1;" vertex="1" parent="QNIii7e7S0lebRz_veVL-74">
          <mxGeometry x="49" y="310" width="80" height="40" as="geometry" />
        </mxCell>
        <mxCell id="QNIii7e7S0lebRz_veVL-79" style="edgeStyle=orthogonalEdgeStyle;rounded=0;orthogonalLoop=1;jettySize=auto;html=1;exitX=1;exitY=0.5;exitDx=0;exitDy=0;" edge="1" parent="QNIii7e7S0lebRz_veVL-35" source="QNIii7e7S0lebRz_veVL-72" target="QNIii7e7S0lebRz_veVL-77">
          <mxGeometry relative="1" as="geometry" />
        </mxCell>
        <mxCell id="QNIii7e7S0lebRz_veVL-138" value="首次" style="edgeLabel;html=1;align=center;verticalAlign=middle;resizable=0;points=[];" vertex="1" connectable="0" parent="QNIii7e7S0lebRz_veVL-79">
          <mxGeometry x="-0.1711" relative="1" as="geometry">
            <mxPoint as="offset" />
          </mxGeometry>
        </mxCell>
        <mxCell id="QNIii7e7S0lebRz_veVL-80" style="edgeStyle=orthogonalEdgeStyle;rounded=0;orthogonalLoop=1;jettySize=auto;html=1;exitX=0.5;exitY=0;exitDx=0;exitDy=0;" edge="1" parent="QNIii7e7S0lebRz_veVL-35" source="QNIii7e7S0lebRz_veVL-77">
          <mxGeometry relative="1" as="geometry">
            <mxPoint x="120" y="70" as="targetPoint" />
            <Array as="points">
              <mxPoint x="316" y="40" />
              <mxPoint x="120" y="40" />
            </Array>
          </mxGeometry>
        </mxCell>
        <mxCell id="QNIii7e7S0lebRz_veVL-83" value="下发" style="edgeLabel;html=1;align=center;verticalAlign=middle;resizable=0;points=[];" vertex="1" connectable="0" parent="QNIii7e7S0lebRz_veVL-80">
          <mxGeometry x="-0.1216" relative="1" as="geometry">
            <mxPoint as="offset" />
          </mxGeometry>
        </mxCell>
        <mxCell id="QNIii7e7S0lebRz_veVL-100" style="edgeStyle=orthogonalEdgeStyle;rounded=0;orthogonalLoop=1;jettySize=auto;html=1;exitX=1;exitY=0.5;exitDx=0;exitDy=0;entryX=0;entryY=0.5;entryDx=0;entryDy=0;" edge="1" parent="QNIii7e7S0lebRz_veVL-35" source="QNIii7e7S0lebRz_veVL-90" target="QNIii7e7S0lebRz_veVL-99">
          <mxGeometry relative="1" as="geometry" />
        </mxCell>
        <mxCell id="QNIii7e7S0lebRz_veVL-106" style="edgeStyle=orthogonalEdgeStyle;rounded=0;orthogonalLoop=1;jettySize=auto;html=1;exitX=1;exitY=0.5;exitDx=0;exitDy=0;" edge="1" parent="QNIii7e7S0lebRz_veVL-35" source="QNIii7e7S0lebRz_veVL-99" target="QNIii7e7S0lebRz_veVL-105">
          <mxGeometry relative="1" as="geometry" />
        </mxCell>
        <mxCell id="QNIii7e7S0lebRz_veVL-108" style="edgeStyle=orthogonalEdgeStyle;rounded=0;orthogonalLoop=1;jettySize=auto;html=1;exitX=1;exitY=0.5;exitDx=0;exitDy=0;" edge="1" parent="QNIii7e7S0lebRz_veVL-35" source="QNIii7e7S0lebRz_veVL-101" target="QNIii7e7S0lebRz_veVL-107">
          <mxGeometry relative="1" as="geometry" />
        </mxCell>
        <mxCell id="QNIii7e7S0lebRz_veVL-135" style="edgeStyle=orthogonalEdgeStyle;rounded=0;orthogonalLoop=1;jettySize=auto;html=1;exitX=0.5;exitY=1;exitDx=0;exitDy=0;entryX=1;entryY=0.5;entryDx=0;entryDy=0;" edge="1" parent="QNIii7e7S0lebRz_veVL-35" source="QNIii7e7S0lebRz_veVL-107" target="QNIii7e7S0lebRz_veVL-134">
          <mxGeometry relative="1" as="geometry" />
        </mxCell>
        <mxCell id="QNIii7e7S0lebRz_veVL-137" style="edgeStyle=orthogonalEdgeStyle;rounded=0;orthogonalLoop=1;jettySize=auto;html=1;exitX=0;exitY=0.5;exitDx=0;exitDy=0;" edge="1" parent="QNIii7e7S0lebRz_veVL-35" source="QNIii7e7S0lebRz_veVL-134" target="QNIii7e7S0lebRz_veVL-136">
          <mxGeometry relative="1" as="geometry" />
        </mxCell>
      </root>
    </mxGraphModel>
  </diagram>
</mxfile>
